<svg width="14" height="14" viewBox="0 0 14 14" fill="none" xmlns="http://www.w3.org/2000/svg">
<path fill-rule="evenodd" clip-rule="evenodd" d="M0.542698 1.05957V5.53483H5.0495H5.58072L5.20554 5.16113L3.89067 3.85661C3.97787 3.77344 4.06737 3.69255 4.16145 3.61621C4.28536 3.51595 4.41616 3.42025 4.54925 3.33366C5.23996 2.88704 6.06491 2.62614 6.95181 2.62614H6.95296V2.625C8.168 2.625 9.26832 3.11491 10.0646 3.9056C10.8608 4.69629 11.3542 5.7889 11.3542 6.9943H11.3531V7H11.3542C11.3542 8.20654 10.8608 9.30029 10.0646 10.0898C9.26832 10.8805 8.168 11.3704 6.95411 11.3704V11.3693H6.94493V11.3704C6.52041 11.3704 6.09703 11.3089 5.69087 11.1893C5.46714 11.1232 5.24684 11.0378 5.03573 10.9364C3.95837 10.4191 3.12539 9.47803 2.75594 8.33073L2.70661 8.1792L0 8.18262L0.0539256 8.44466L0.0550729 8.4515V8.45264C0.146861 8.89014 0.284544 9.3208 0.460089 9.73324V9.73438C0.633339 10.1388 0.847894 10.5296 1.09457 10.8953C2.3601 12.7673 4.51139 14 6.95181 14H6.95296V13.9989C8.89887 13.9989 10.6624 13.215 11.9359 11.9492V11.9481C13.2095 10.6823 13.9989 8.93457 13.9989 7.00342H14V6.99772H13.9989C13.9989 5.06543 13.2095 3.31543 11.9336 2.04964C10.6624 0.784993 8.90116 0.00227865 6.9564 0.00113932V0H6.94952V0.00113932C5.95017 0.00113932 4.99787 0.208496 4.13735 0.582194C3.99853 0.642578 3.85969 0.708659 3.72431 0.777018C3.09556 1.09945 2.52303 1.51302 2.02278 2.00065L0.917882 0.905762L0.542698 0.532064V1.05957Z" fill="white"/>
</svg>
