<svg width="23" height="14" viewBox="0 0 23 14" fill="none" xmlns="http://www.w3.org/2000/svg">
<path fill-rule="evenodd" clip-rule="evenodd" d="M17.673 3.52683L14.3076 3.508V1.22959C14.3076 0.890652 14.171 0.583726 13.9482 0.361533C13.7274 0.137458 13.4223 0 13.0854 0H3.75659C3.41968 0 3.11458 0.137458 2.89372 0.361533C2.67285 0.583726 2.53434 0.890652 2.53434 1.22959C2.53434 1.41412 2.68221 1.56288 2.86564 1.56288C3.04907 1.56288 3.19694 1.41412 3.19694 1.22959C3.19694 1.07519 3.26058 0.933961 3.36165 0.83228C3.46273 0.730599 3.60311 0.666577 3.75659 0.666577H13.0854C13.2389 0.666577 13.3792 0.730599 13.4803 0.83228C13.5814 0.933961 13.645 1.07519 13.645 1.22959V11.6632H11.777C11.5936 11.6632 11.4457 11.812 11.4457 11.9965C11.4457 12.181 11.5936 12.3298 11.777 12.3298H13.9763C14.1597 12.3298 14.3076 12.181 14.3076 11.9965V11.618H16.3066C16.4583 8.14956 21.409 7.67129 21.9125 11.618H23L22.665 7.99892L19.0955 6.62434L17.673 3.52683ZM0.496012 7.06873C0.220866 7.06873 0 6.91809 0 6.73356C0 6.54903 0.222738 6.39839 0.496012 6.39839H4.96761C5.24276 6.39839 5.46362 6.54903 5.46362 6.73356C5.46362 6.91809 5.24089 7.06873 4.96761 7.06873H0.496012ZM1.51986 5.26483C1.31396 5.26483 1.14738 5.11607 1.14738 4.93154C1.14738 4.74701 1.31396 4.59825 1.51986 4.59825H4.96948C5.17537 4.59825 5.34196 4.74701 5.34196 4.93154C5.34196 5.11607 5.17537 5.26483 4.96948 5.26483H1.51986ZM1.99341 3.46093C1.78752 3.46093 1.62093 3.31217 1.62093 3.12764C1.62093 2.94311 1.78752 2.79435 1.99341 2.79435H4.96761C5.1735 2.79435 5.34009 2.94311 5.34009 3.12764C5.34009 3.31217 5.1735 3.46093 4.96761 3.46093H1.99341ZM4.95264 11.6613C5.13607 11.6613 5.28394 11.8101 5.28394 11.9946C5.28394 12.1792 5.13607 12.3279 4.95264 12.3279H3.75659C3.42155 12.3279 3.11646 12.181 2.89372 11.9494C2.67285 11.7178 2.53434 11.4015 2.53434 11.0663V8.61843C2.53434 8.43389 2.68221 8.28514 2.86564 8.28514C3.04907 8.28514 3.19694 8.43389 3.19694 8.61843V11.0663C3.19694 11.2264 3.26245 11.3789 3.36914 11.49C3.47021 11.5954 3.60685 11.6632 3.75472 11.6632H4.95264V11.6613ZM8.32178 9.4846C7.08268 9.4846 6.07756 10.4958 6.07756 11.7423C6.07756 12.9888 7.08268 14 8.32178 14C9.56087 14 10.566 12.9888 10.566 11.7423C10.5641 10.4958 9.56087 9.4846 8.32178 9.4846ZM8.32178 10.8742C7.84635 10.8742 7.4589 11.2621 7.4589 11.7423C7.4589 12.2206 7.84448 12.6104 8.32178 12.6104C8.7972 12.6104 9.18465 12.2225 9.18465 11.7423C9.18278 11.2621 8.7972 10.8742 8.32178 10.8742ZM19.103 9.4846C17.8639 9.4846 16.8588 10.4958 16.8588 11.7423C16.8588 12.9888 17.8639 14 19.103 14C20.3421 14 21.3472 12.9888 21.3472 11.7423C21.3472 10.4958 20.3421 9.4846 19.103 9.4846ZM19.103 10.8742C18.6276 10.8742 18.2402 11.2621 18.2402 11.7423C18.2402 12.2206 18.6257 12.6104 19.103 12.6104C19.5803 12.6104 19.9659 12.2225 19.9659 11.7423C19.9659 11.2621 19.5803 10.8742 19.103 10.8742ZM16.8064 4.48339L15.1349 4.46456V6.62811H17.9369L16.8064 4.48339Z" fill="white"/>
</svg>
