<svg width="20" height="20" viewBox="0 0 20 20" fill="none" xmlns="http://www.w3.org/2000/svg">
<path d="M10.6522 0.374866L14.1204 6.2993L18.5912 2.02907C18.8598 1.77269 19.2862 1.78249 19.5417 2.05356C19.7972 2.323 19.7875 2.75084 19.5173 3.00722L14.8186 7.493L19.9063 16.1837C20.0967 16.5086 19.9876 16.9267 19.6638 17.1161C19.5563 17.1798 19.4375 17.2092 19.3204 17.2092V17.2125H17.3104L19.0095 18.8356C19.278 19.092 19.2894 19.5199 19.0339 19.7893C18.7784 20.0587 18.352 20.0702 18.0834 19.8138L15.3622 17.2141H4.6417L1.92048 19.8138C1.65194 20.0702 1.22553 20.0604 0.970005 19.7893C0.714484 19.5199 0.724249 19.092 0.994418 18.8356L2.69355 17.2125H0.681933C0.305975 17.2125 0 16.9055 0 16.5282C0 16.3862 0.0439432 16.2539 0.117182 16.1445L5.21134 7.52076L0.485003 3.00559C0.216461 2.74921 0.205068 2.32137 0.46059 2.05193C0.716111 1.78249 1.14252 1.77106 1.41106 2.02744L5.91606 6.32869L9.45755 0.335674C9.64797 0.0107124 10.0662 -0.0970639 10.3901 0.095627C10.5057 0.164212 10.5952 0.26219 10.6522 0.374866ZM13.9284 15.844L10.0011 12.0931L6.07393 15.844H13.9284ZM9.02626 11.1623L6.22366 8.48748L1.87816 15.844H4.12578L9.02626 11.1623ZM6.92675 7.29704L9.99952 10.2331L13.1065 7.26438L10.0418 2.02417L6.92675 7.29704ZM10.976 11.1623L15.8781 15.844H18.1323L13.8079 8.45809L10.976 11.1623Z" fill="#212121"/>
</svg>
