<svg width="14" height="16" viewBox="0 0 14 16" fill="none" xmlns="http://www.w3.org/2000/svg">
<path d="M14 13.0439C13.9075 13.8071 13.8669 14.1378 13.5215 14.8818L8.2168 16C8.33876 15.1956 8.50137 14.5753 8.76562 14.2031L14 13.0439ZM6.61035 7.77832L8.19629 7.42676V2.31543C8.78694 1.6389 9.15029 1.33521 9.86328 0.951172V7.05762L14 6.1416C13.9075 6.90511 13.867 7.2362 13.5215 7.98047L9.86328 8.76855V10.4854L14 9.59277C13.9075 10.3563 13.867 10.6874 13.5215 11.4316L9.86328 12.2012V12.2188L8.19629 12.5703V9.12891L6.61035 9.4707V11.6396L6.58301 11.6445C6.21837 12.297 5.7042 13.0812 5.20801 13.707L0 14.7188C0.0466915 14.0351 0.144281 13.6496 0.447266 12.9609L4.94336 11.9668V9.83008L0.776367 10.7295C0.823067 10.0461 0.920742 9.66113 1.22363 8.97266L4.94336 8.14746V1.36426C5.53406 0.687644 5.89737 0.38404 6.61035 0V7.77832Z" fill="black"/>
</svg>
