<svg width="17" height="14" viewBox="0 0 17 14" fill="none" xmlns="http://www.w3.org/2000/svg">
<g clip-path="url(#clip0_1_290)">
<path d="M8.66463 0.839819C8.74211 0.456865 8.94548 0.210968 9.22355 0.0860039C9.44906 -0.0161173 9.7133 -0.0255231 9.98722 0.0443492C10.2252 0.104816 10.4756 0.228436 10.7149 0.405804C11.3638 0.885505 11.9711 1.78981 12.0486 2.91986C12.0721 3.26788 12.0652 3.63874 12.032 4.03379C12.0098 4.29447 11.9753 4.56858 11.9282 4.85345H14.6882L14.7007 4.85479C15.1489 4.87226 15.5833 4.97841 15.95 5.16384C16.2668 5.32509 16.5338 5.54545 16.7192 5.81957C16.9101 6.10174 17.0138 6.43767 16.9986 6.82197C16.9876 7.10683 16.9087 7.41588 16.7482 7.74509C16.8395 8.11595 16.8824 8.51368 16.8229 8.86304C16.7731 9.16 16.6541 9.42337 16.4411 9.61955C16.4521 10.11 16.3844 10.5212 16.2488 10.8772C16.109 11.2427 15.9001 11.5464 15.6318 11.8152C15.6082 12.0503 15.5695 12.2747 15.5086 12.4843C15.4325 12.7477 15.3205 12.9895 15.1641 13.2032C14.6938 13.8482 14.3175 13.8334 13.7212 13.8092C13.6382 13.8065 13.5496 13.8025 13.4113 13.8025H8.01164C7.52604 13.8025 7.14421 13.734 6.79557 13.5646C6.45109 13.3967 6.15641 13.1387 5.84237 12.7571L5.76213 12.534V6.4202L6.03605 6.34898C6.73193 6.16624 7.27979 5.58845 7.70589 4.89645C8.14307 4.18429 8.4502 3.35119 8.66048 2.678V0.908348L8.66463 0.839819ZM0.553385 5.7806H4.5765C4.88086 5.7806 5.12988 6.02247 5.12988 6.31808V13.4625C5.12988 13.7581 4.88086 14 4.5765 14H0.553385C0.249023 14 0 13.7581 0 13.4625V6.31808C0 6.02247 0.249023 5.7806 0.553385 5.7806ZM9.53206 0.736354C9.47258 0.763228 9.42415 0.830413 9.3951 0.945971V2.72772L9.3785 2.82984C9.15576 3.5514 8.82373 4.46512 8.33399 5.26193C7.87329 6.01037 7.27564 6.654 6.49813 6.95096V12.4077C6.71118 12.6536 6.90763 12.8202 7.12345 12.925C7.36141 13.0406 7.64087 13.0863 8.01164 13.0863H13.4113C13.5081 13.0863 13.6327 13.0917 13.7502 13.0957C14.1044 13.1091 14.3271 13.1185 14.5665 12.7907V12.7893C14.6702 12.6469 14.7463 12.4789 14.8003 12.2908C14.8584 12.0906 14.893 11.8676 14.9096 11.6297L15.023 11.3946C15.261 11.1756 15.4422 10.9297 15.5584 10.6273C15.6774 10.3156 15.7286 9.94069 15.6995 9.4704L15.6871 9.25809L15.8725 9.14657C15.9998 9.06997 16.0689 8.92486 16.098 8.74749C16.145 8.46531 16.0952 8.11998 16.0053 7.79884L16.0343 7.5395C16.1838 7.26136 16.2557 7.01277 16.2654 6.79509C16.2737 6.56935 16.2142 6.37317 16.1035 6.21058C15.9873 6.03993 15.8171 5.90019 15.611 5.79538C15.3454 5.65967 15.0244 5.58173 14.6896 5.5683V5.56964H11.0483L11.13 5.14637C11.2088 4.73655 11.2655 4.34553 11.2987 3.97467C11.3306 3.61187 11.3361 3.2746 11.3153 2.96824C11.2531 2.06527 10.7772 1.35042 10.2695 0.975533C10.1076 0.855943 9.9471 0.773978 9.80184 0.737698C9.68978 0.708136 9.59847 0.706793 9.53206 0.736354Z" fill="white"/>
</g>
<defs>
<clipPath id="clip0_1_290">
<rect width="17" height="14" fill="white"/>
</clipPath>
</defs>
</svg>
