<svg width="18" height="18" viewBox="0 0 18 18" fill="none" xmlns="http://www.w3.org/2000/svg">
<path fill-rule="evenodd" clip-rule="evenodd" d="M9 0C11.4851 0 13.7352 1.00751 15.3638 2.63616C16.9925 4.2648 18 6.51495 18 9C18 11.4851 16.9925 13.7352 15.3638 15.3638C13.7352 16.9925 11.4851 18 9 18C6.51495 18 4.2648 16.9925 2.63616 15.3638C1.00751 13.7352 0 11.4851 0 9C0 6.51495 1.00751 4.2648 2.63616 2.63616C4.2648 1.00751 6.51495 0 9 0ZM9.68716 10.6271C9.65623 11.4027 8.34258 11.4037 8.31259 10.6268C8.17973 9.29777 7.83995 6.14254 7.85078 4.89375C7.86175 4.50893 8.18065 4.28112 8.58871 4.19421C8.7145 4.16732 8.8528 4.15427 8.99216 4.15441C9.13233 4.15466 9.27102 4.16848 9.39695 4.19537C9.81844 4.28516 10.1494 4.52236 10.1492 4.91411L10.1477 4.95337L9.68716 10.6271ZM9 12.0056C9.50811 12.0056 9.91997 12.4175 9.91997 12.9257C9.91997 13.4338 9.50811 13.8456 9 13.8456C8.49189 13.8456 8.07993 13.4338 8.07993 12.9257C8.07993 12.4175 8.49189 12.0056 9 12.0056ZM9 1.03584C13.3985 1.03584 16.9642 4.60146 16.9642 9C16.9642 13.3985 13.3985 16.9642 9 16.9642C4.60146 16.9642 1.03584 13.3985 1.03584 9C1.03584 4.60146 4.60146 1.03584 9 1.03584Z" fill="black"/>
</svg>
