<svg width="23" height="14" viewBox="0 0 23 14" fill="none" xmlns="http://www.w3.org/2000/svg">
<path fill-rule="evenodd" clip-rule="evenodd" d="M17.673 3.52683L14.3076 3.508V1.22959C14.3076 0.890652 14.171 0.583726 13.9482 0.361533C13.7274 0.137458 13.4223 0 13.0854 0H3.75659C3.41968 0 3.11458 0.137458 2.89372 0.361533C2.67285 0.583726 2.53434 0.890652 2.53434 1.22959C2.53434 1.41412 2.68221 1.56288 2.86564 1.56288C3.04907 1.56288 3.19694 1.41412 3.19694 1.22959C3.19694 1.07519 3.26058 0.933961 3.36165 0.83228C3.46273 0.730599 3.60311 0.666577 3.75659 0.666577H13.0854C13.2389 0.666577 13.3792 0.730599 13.4803 0.83228C13.5814 0.933961 13.645 1.07519 13.645 1.22959V11.6632H11.777C11.5936 11.6632 11.4457 11.812 11.4457 11.9965C11.4457 12.181 11.5936 12.3298 11.777 12.3298H13.9763C14.1597 12.3298 14.3076 12.181 14.3076 11.9965V11.618H16.3066C16.4583 8.14956 21.409 7.67129 21.9125 11.618H23L22.665 7.99892L19.0955 6.62434L17.673 3.52683Z" fill="white"/>
</svg>
