<svg width="20" height="15" viewBox="0 0 20 15" fill="none" xmlns="http://www.w3.org/2000/svg">
<path d="M5.14141 1.28901C4.78498 1.28901 4.4969 1.00094 4.4969 0.644507C4.4969 0.288075 4.78498 0 5.14141 0H17.0957C17.4294 0 17.7044 0.253897 17.737 0.579406L19.9911 14.0034C20.0497 14.3533 19.8121 14.6853 19.4622 14.7439C19.4264 14.7504 19.3906 14.7521 19.3564 14.7521V14.7537H0.644507C0.288075 14.7537 0 14.4656 0 14.1092C0 14.0473 0.00813772 13.9871 0.0260407 13.9301C0.340157 12.4458 0.784476 11.0966 1.39643 9.92476C2.02955 8.71224 2.84006 7.6934 3.86704 6.90892C6.01866 5.26673 7.72595 5.28138 10.0094 5.30254C10.1168 5.30417 10.2242 5.30417 10.7743 5.30417H17.2292L16.5521 1.28901H5.14141ZM18.5963 13.4647L17.4424 6.59155H10.7711L9.99637 6.58504C7.96683 6.56714 6.44833 6.55412 4.64501 7.92939C3.77102 8.59669 3.07931 9.47231 2.53246 10.5172C2.07837 11.3863 1.72357 12.3758 1.45014 13.4647H18.5963Z" fill="#212121"/>
</svg>
