<svg width="19" height="19" viewBox="0 0 19 19" fill="none" xmlns="http://www.w3.org/2000/svg">
<path d="M8 0C12.4183 0 16 3.58172 16 8C16 9.8486 15.3703 11.5487 14.3174 12.9033L18.3643 16.9492C18.7548 17.3397 18.7548 17.9737 18.3643 18.3643C17.9739 18.7546 17.3407 18.7543 16.9502 18.3643L12.9033 14.3174C11.5487 15.3703 9.8486 16 8 16C3.58172 16 0 12.4183 0 8C0 3.58172 3.58172 0 8 0ZM8 2C4.68629 2 2 4.68629 2 8C2 11.3137 4.68629 14 8 14C11.3137 14 14 11.3137 14 8C14 4.68629 11.3137 2 8 2Z" fill="#A0A0A0"/>
</svg>
