<svg width="20" height="20" viewBox="0 0 20 20" fill="none" xmlns="http://www.w3.org/2000/svg">
<path d="M18.3334 9.23335V4.16669C18.3334 2.50002 17.6334 1.66669 15.8001 1.66669H12.1334C10.3001 1.66669 9.60008 2.50002 9.60008 4.16669V9.22502C9.60008 10.9 10.3001 11.7334 12.1334 11.7334H15.8001C17.6334 11.7417 18.3334 10.9084 18.3334 9.23335Z" stroke="#212121" stroke-width="1.5" stroke-linecap="round" stroke-linejoin="round"/>
<path d="M10.3334 18.3334V14.1667C10.3334 12.5 9.63341 11.6667 7.80008 11.6667H4.13341C2.30008 11.6667 1.60008 12.5 1.60008 14.1667V18.3334C1.60008 20 2.30008 20.8334 4.13341 20.8334H7.80008C9.63341 20.8334 10.3334 20 10.3334 18.3334Z" stroke="#212121" stroke-width="1.5" stroke-linecap="round" stroke-linejoin="round"/>
</svg>
